# This file uses centimeters as units for non-parametric coordinates.

mtllib Outside Corner_LP.mtl
g default
v -1.000000 0.000000 0.000000
v 0.000000 0.000000 0.000000
v -1.000000 1.000000 0.000000
v 0.000000 0.592285 0.000000
v -1.000000 1.000000 -4.000000
v 0.000000 0.592285 -3.000000
v -1.000000 0.000000 -4.000000
v 0.000000 0.000000 -3.000000
v -0.400000 0.000000 0.000000
v -0.400000 1.000000 0.000000
v -0.400000 1.000000 -3.400000
v -0.400000 0.000000 -3.400000
v -1.000000 0.000000 -4.000000
v 0.000000 0.000000 -3.000000
v -1.000000 1.000000 -4.000000
v -0.000000 0.592285 -3.000000
v 3.000000 1.000000 -4.000000
v 3.000000 0.592285 -3.000000
v 3.000000 0.000000 -4.000000
v 3.000000 0.000000 -3.000000
v -0.400000 0.000000 -3.400000
v -0.400000 1.000000 -3.400000
v 3.000000 1.000000 -3.400000
v 3.000000 0.000000 -3.400000
vt 0.062439 0.486704
vt 0.772536 0.041758
vt 0.160554 0.042745
vt 0.596078 0.043146
vt 0.903817 0.041758
vt 0.903817 0.260559
vt 0.249382 0.042745
vt 0.249382 0.486885
vt 0.160554 0.486885
vt 0.607126 0.486885
vt 0.063516 0.042566
vt 0.151202 0.042778
vt 0.150125 0.486917
vt 0.259468 0.042566
vt 0.772536 0.260559
vt 0.695955 0.486885
vt 0.418630 0.043146
vt 0.695955 0.042745
vt 0.607126 0.042745
vt 0.418630 0.486767
vt 0.763075 0.042817
vt 0.596078 0.486767
vt 0.258391 0.486704
vt 0.991338 0.041758
vt 0.406437 0.487063
vt 0.991338 0.171351
vt 0.407514 0.042925
vt 0.761997 0.486956
vt 0.702779 0.486812
vt 0.703856 0.042673
vt 0.160554 0.545026
vt 0.249382 0.545026
vt 0.249382 0.989166
vt 0.160554 0.989166
vt 0.773392 0.988069
vt 0.904673 0.988069
vt 0.904673 0.769267
vt 0.773392 0.769267
vt 0.607126 0.989166
vt 0.695955 0.989166
vt 0.695955 0.545026
vt 0.607126 0.545026
vt 0.062439 0.988985
vt 0.063516 0.544847
vt 0.151202 0.545060
vt 0.150125 0.989198
vt 0.259468 0.544847
vt 0.258391 0.988985
vt 0.406437 0.989344
vt 0.407514 0.545206
vt 0.418630 0.989049
vt 0.418630 0.545428
vt 0.596078 0.545428
vt 0.596078 0.989049
vt 0.992194 0.898860
vt 0.992194 0.769267
vt 0.763075 0.545098
vt 0.761997 0.989237
vt 0.702779 0.989093
vt 0.703856 0.544955
vn 0.000000 0.000000 1.000000
vn -0.000000 -0.000000 1.000000
vn -0.000000 -0.000000 1.000000
vn 0.000000 0.000000 1.000000
vn 0.000000 1.000000 0.000000
vn 0.349289 0.937015 0.000000
vn 0.190331 0.981720 0.000000
vn 0.000000 1.000000 0.000000
vn 0.000000 -1.000000 0.000000
vn 0.000000 -1.000000 0.000000
vn 0.000000 -1.000000 0.000000
vn 0.000000 -1.000000 0.000000
vn 1.000000 0.000000 0.000000
vn 1.000000 0.000000 0.000000
vn 1.000000 0.000000 0.000000
vn 1.000000 0.000000 0.000000
vn -1.000000 0.000000 0.000000
vn -1.000000 0.000000 0.000000
vn -1.000000 0.000000 0.000000
vn -1.000000 0.000000 0.000000
vn -0.000001 -0.000000 1.000000
vn -0.000001 -0.000000 1.000000
vn 0.713828 0.700321 0.000000
vn 0.713828 0.700321 0.000000
vn 0.000000 -1.000000 0.000000
vn 0.000000 -1.000000 0.000000
vn 0.000000 1.000000 0.000000
vn 0.000000 0.981720 0.190331
vn 0.000000 0.937015 0.349289
vn 0.000000 1.000000 0.000000
vn 1.000000 0.000000 0.000000
vn 1.000000 0.000000 0.000000
vn 1.000000 0.000000 0.000000
vn 1.000000 0.000000 0.000000
vn 0.000000 -1.000000 0.000000
vn 0.000000 -1.000000 0.000000
vn 0.000000 -1.000000 0.000000
vn 0.000000 -1.000000 0.000000
vn 0.000000 0.000000 1.000000
vn 0.000000 0.000000 1.000000
vn 0.000000 0.000000 1.000000
vn 0.000000 0.000000 1.000000
vn 0.000000 0.000000 -1.000000
vn 0.000000 0.000000 -1.000000
vn 0.000000 0.000000 -1.000000
vn 0.000000 0.000000 -1.000000
vn 0.000000 0.700321 0.713828
vn 0.000000 0.700321 0.713828
vn 1.000000 0.000000 0.000000
vn 1.000000 0.000000 0.000000
vn 0.000000 -1.000000 0.000000
vn 0.000000 -1.000000 0.000000
s 1
g Outside_Combined
usemtl initialShadingGroup
f 1/2/1 9/5/2 10/6/3 3/15/4
s 2
f 3/3/5 10/7/6 11/8/7 5/9/8
s 3
f 7/10/9 12/16/10 9/18/11 1/19/12
s off
f 2/1/13 8/11/14 6/12/15 4/13/16
f 7/14/17 1/23/18 3/25/19 5/27/20
s 1
f 10/6/3 9/5/2 2/24/21 4/26/22
s 2
f 11/20/7 10/17/6 4/4/23 6/22/24
s 3
f 9/21/11 12/28/10 8/29/25 2/30/26
s 4
f 15/31/27 22/32/28 23/33/29 17/34/30
s 5
f 17/35/31 23/36/32 24/37/33 19/38/34
s 6
f 19/39/35 24/40/36 21/41/37 13/42/38
s off
f 14/43/39 20/44/40 18/45/41 16/46/42
f 19/47/43 13/48/44 15/49/45 17/50/46
s 4
f 23/51/29 22/52/28 16/53/47 18/54/48
s 5
f 24/37/33 23/36/32 18/55/49 20/56/50
s 6
f 21/57/37 24/58/36 20/59/51 14/60/52
